HIERARCHY
ROOT Hips
{
	OFFSET 0.00 0.00 0.00
	CHANNELS 6 Xposition Yposition Zposition Xrotation Yrotation Zrotation
	JOINT Spine
	{
		OFFSET 0.00000 1.70439 2.55658
		CHANNELS 3 Xrotation Yrotation Zrotation
		JOINT Spine1
		{
			OFFSET 0.00000 0.59193 3.35699
			CHANNELS 3 Xrotation Yrotation Zrotation
			JOINT Spine2
			{
				OFFSET 0.00000 0.29710 3.39581
				CHANNELS 3 Xrotation Yrotation Zrotation
				JOINT Spine3
				{
					OFFSET 0.00000 0.00000 3.40878
					CHANNELS 3 Xrotation Yrotation Zrotation
					JOINT Neck
					{
						OFFSET 0.00000 -1.27828 8.94804
						CHANNELS 3 Xrotation Yrotation Zrotation
						JOINT Head
						{
							OFFSET 0.00000 -0.81390 4.61586
							CHANNELS 3 Xrotation Yrotation Zrotation
							End Site
							{
								OFFSET 0.00000 0.00001 5.51796
							}
						}
					}
					JOINT RightShoulder
					{
						OFFSET -1.18875 -1.98124 6.41925
						CHANNELS 3 Xrotation Yrotation Zrotation
						JOINT RightArm
						{
							OFFSET -5.90412 0.00000 0.00000
							CHANNELS 3 Xrotation Yrotation Zrotation
							JOINT RightForeArm
							{
								OFFSET -11.94674 0.00000 0.00000
								CHANNELS 3 Xrotation Yrotation Zrotation
								JOINT RightHand
								{
									OFFSET -10.17720 0.00000 0.00000
									CHANNELS 3 Xrotation Yrotation Zrotation
									JOINT RightHandEnd
									{
										OFFSET -2.84518 0.00000 0.00000
										CHANNELS 3 Xrotation Yrotation Zrotation
										End Site
										{
											OFFSET -2.84518 0.00000 0.00000
										}
									}
									JOINT RightHandThumb1
									{
										OFFSET -1.13807 -1.89679 -0.75871
										CHANNELS 3 Yrotation Xrotation Zrotation
										End Site
										{
											OFFSET -2.74823 -0.73639 0.00000
										}
									}
								}
							}
						}
					}
					JOINT LeftShoulder
					{
						OFFSET 1.18875 -1.98124 6.41925
						CHANNELS 3 Xrotation Yrotation Zrotation
						JOINT LeftArm
						{
							OFFSET 5.90412 0.00000 0.00000
							CHANNELS 3 Xrotation Yrotation Zrotation
							JOINT LeftForeArm
							{
								OFFSET 11.94674 0.00000 0.00000
								CHANNELS 3 Xrotation Yrotation Zrotation
								JOINT LeftHand
								{
									OFFSET 10.17720 0.00000 0.00000
									CHANNELS 3 Xrotation Yrotation Zrotation
									JOINT LeftHandEnd
									{
										OFFSET 2.84518 0.00000 0.00000
										CHANNELS 3 Xrotation Yrotation Zrotation
										End Site
										{
											OFFSET 2.84518 0.00000 0.00000
										}
									}
									JOINT LeftHandThumb1
									{
										OFFSET 1.13807 -1.89679 -0.75871
										CHANNELS 3 Yrotation Xrotation Zrotation
										End Site
										{
											OFFSET 2.74823 -0.73639 0.00000
										}
									}
								}
							}
						}
					}
				}
			}
		}
	}
	JOINT RightUpLeg
	{
		OFFSET -3.52662 0.00000 -1.03025
		CHANNELS 3 Xrotation Yrotation Zrotation
		JOINT RightLeg
		{
			OFFSET 0.00001 0.00000 -17.80159
			CHANNELS 3 Xrotation Yrotation Zrotation
			JOINT RightFoot
			{
				OFFSET 0.00001 0.00000 -16.85992
				CHANNELS 3 Xrotation Yrotation Zrotation
				JOINT RightToeBase
				{
					OFFSET 0.00000 -5.42953 -1.97619
					CHANNELS 3 Xrotation Yrotation Zrotation
					End Site
					{
						OFFSET 0.00000 -2.85300 -0.00000
					}
				}
			}
		}
	}
	JOINT LeftUpLeg
	{
		OFFSET 3.52662 0.00000 -1.03025
		CHANNELS 3 Xrotation Yrotation Zrotation
		JOINT LeftLeg
		{
			OFFSET 0.00001 0.00000 -17.80159
			CHANNELS 3 Xrotation Yrotation Zrotation
			JOINT LeftFoot
			{
				OFFSET 0.00001 0.00000 -16.85992
				CHANNELS 3 Xrotation Yrotation Zrotation
				JOINT LeftToeBase
				{
					OFFSET 0.00000 -5.42953 -1.97619
					CHANNELS 3 Xrotation Yrotation Zrotation
					End Site
					{
						OFFSET 0.00000 -2.85300 -0.00000
					}
				}
			}
		}
	}
}
MOTION
Frames: 10
Frame Time: 0.008342
 9.8285 -70.0632 29.1922 6.6049 2.9394 -146.2104 19.0733 -1.9094 0.8839 6.7925 -0.6703 -0.1480 6.5017 3.2914 2.0714 3.0875 0.1368 -0.2658 3.9524 7.0316 3.0294 8.8263 -5.5409 -2.4254 0.1441 2.4095 37.8332 -34.0318 -23.6185 11.0974 0.0000 0.0000 13.4496 -54.6592 9.5272 -9.8130 -0.0000 -0.0000 0.0000 -0.0000 -0.0000 -0.0000 1.3037 2.6079 -29.4111 26.7859 43.7083 -74.0707 -0.0000 -0.0000 -55.5069 -19.8682 -22.2292 5.5734 0.0000 -0.0000 0.0000 0.0000 -0.0000 0.0000 -48.3295 17.0855 -4.1528 73.0219 0.0000 0.0000 -17.0331 -8.9885 -21.2390 2.1447 0.0000 0.0000 -52.4664 -1.2065 -6.1849 49.1248 0.0000 0.0000 13.5672 15.3188 -13.3202 0.5700 0.0000 0.0000
 9.8174 -70.1138 29.2086 6.6521 3.0526 -146.5748 19.0213 -2.0044 0.9064 6.7807 -0.6981 -0.1488 6.3946 3.2337 2.1485 3.0710 0.1124 -0.2288 3.8066 7.0711 3.0035 8.8387 -5.5407 -2.5577 0.0676 2.4991 38.0301 -33.8572 -23.4930 11.1746 0.0000 0.0000 13.2857 -54.7089 9.2898 -9.8089 -0.0000 -0.0000 -0.0000 -0.0000 -0.0000 0.0000 1.2164 2.6450 -29.4136 26.5430 43.6307 -73.8177 -0.0000 -0.0000 -55.4930 -19.8421 -22.2139 5.5280 -0.0000 0.0000 -0.0000 -0.0000 0.0000 0.0000 -48.3074 17.0880 -4.0788 72.7940 0.0000 0.0000 -16.7966 -9.0205 -20.9188 2.1703 0.0000 0.0000 -52.2478 -1.3291 -6.0389 48.9385 0.0000 0.0000 13.6712 15.3553 -13.0275 0.8845 0.0000 0.0000
 9.8011 -70.1659 29.2272 6.7042 3.2020 -146.9436 18.9987 -2.0799 0.9236 6.7656 -0.7266 -0.1476 6.2857 3.1730 2.2397 3.0568 0.0858 -0.1865 3.6365 7.1130 2.9822 8.8417 -5.5438 -2.7074 0.0023 2.5776 38.2384 -33.6992 -23.3523 11.2424 0.0000 0.0000 13.1382 -54.7722 9.0862 -9.7977 0.0000 -0.0000 -0.0000 0.0000 0.0000 -0.0000 1.1265 2.6805 -29.3979 26.2960 43.5300 -73.5712 -0.0000 -0.0000 -55.4785 -19.8081 -22.1902 5.4982 0.0000 -0.0000 0.0000 -0.0000 0.0000 0.0000 -48.2659 17.1276 -3.9919 72.5621 0.0000 0.0000 -16.5417 -9.0464 -20.5714 2.2071 0.0000 0.0000 -51.9776 -1.4291 -5.8724 48.7054 0.0000 0.0000 13.8342 15.4222 -12.7804 1.2174 0.0000 0.0000
 9.7823 -70.2191 29.2462 6.7401 3.3344 -147.3158 18.9525 -2.1655 0.9459 6.7516 -0.7538 -0.1459 6.1787 3.1089 2.3471 3.0441 0.0549 -0.1384 3.4432 7.1593 2.9699 8.8384 -5.5512 -2.8765 -0.0553 2.6400 38.4543 -33.5499 -23.1979 11.3065 0.0000 0.0000 13.0000 -54.8368 8.8871 -9.7922 0.0000 0.0000 -0.0000 0.0000 -0.0000 -0.0000 1.0275 2.7262 -29.3556 26.0653 43.4037 -73.3426 -0.0000 -0.0000 -55.4614 -19.7733 -22.1570 5.4884 0.0000 0.0000 0.0000 0.0000 -0.0000 -0.0000 -48.2470 17.1687 -3.9114 72.3264 0.0000 0.0000 -16.2721 -9.0593 -20.2168 2.2511 0.0000 0.0000 -51.7208 -1.5357 -5.7021 48.4460 0.0000 0.0000 14.0375 15.5230 -12.6117 1.4982 0.0000 0.0000
 9.7602 -70.2731 29.2661 6.7704 3.4680 -147.6929 18.9043 -2.2499 0.9715 6.7367 -0.7803 -0.1426 6.0708 3.0392 2.4735 3.0344 0.0169 -0.0840 3.2333 7.2172 2.9626 8.8303 -5.5649 -3.0632 -0.0990 2.6954 38.6776 -33.4038 -23.0234 11.3639 0.0000 0.0000 12.8683 -54.9272 8.6791 -9.8059 -0.0000 0.0000 -0.0000 0.0000 0.0000 0.0000 0.9389 2.7634 -29.2981 25.8360 43.2736 -73.1382 -0.0000 -0.0000 -55.4385 -19.7401 -22.1178 5.4906 0.0000 -0.0000 -0.0000 0.0000 0.0000 -0.0000 -48.2328 17.2168 -3.8285 72.0898 0.0000 0.0000 -15.9964 -9.0592 -19.8595 2.2962 0.0000 0.0000 -51.4601 -1.6419 -5.5188 48.1699 0.0000 0.0000 14.2424 15.6623 -12.5239 1.6477 0.0000 0.0000
 9.7350 -70.3278 29.2868 6.7959 3.5996 -148.0735 18.8544 -2.3375 1.0017 6.7218 -0.8077 -0.1381 5.9613 2.9648 2.6197 3.0271 -0.0242 -0.0218 3.0087 7.2868 2.9586 8.8207 -5.5854 -3.2658 -0.1429 2.7375 38.8963 -33.2664 -22.8475 11.4101 0.0000 0.0000 12.7376 -55.0366 8.4533 -9.8394 0.0000 0.0000 0.0000 0.0000 0.0000 0.0000 0.8469 2.8092 -29.2215 25.6338 43.1318 -72.9675 -0.0000 -0.0000 -55.4038 -19.7123 -22.0703 5.5070 0.0000 0.0000 -0.0000 0.0000 -0.0000 0.0000 -48.2228 17.2669 -3.7433 71.8525 0.0000 0.0000 -15.7202 -9.0479 -19.5084 2.3360 0.0000 0.0000 -51.2051 -1.7508 -5.3188 47.8960 0.0000 0.0000 14.4014 15.8394 -12.5084 1.5885 0.0000 0.0000
 9.7073 -70.3831 29.3082 6.8174 3.7278 -148.4543 18.8030 -2.4286 1.0361 6.7069 -0.8356 -0.1330 5.8513 2.8843 2.7844 3.0210 -0.0693 0.0477 2.7723 7.3679 2.9592 8.8130 -5.6097 -3.4830 -0.1957 2.7660 39.1076 -33.1304 -22.6792 11.4448 0.0000 0.0000 12.5975 -55.1554 8.2027 -9.8883 0.0000 0.0000 -0.0000 -0.0000 0.0000 0.0000 0.7469 2.8690 -29.1275 25.4671 42.9778 -72.8324 -0.0000 -0.0000 -55.3541 -19.6917 -22.0143 5.5398 -0.0000 0.0000 -0.0000 0.0000 -0.0000 -0.0000 -48.2157 17.3166 -3.6561 71.6149 0.0000 0.0000 -15.4480 -9.0300 -19.1705 2.3648 0.0000 0.0000 -50.9654 -1.8625 -5.0990 47.6465 0.0000 0.0000 14.4586 16.0544 -12.5361 1.2569 0.0000 0.0000
 9.6770 -70.4392 29.3303 6.8349 3.8523 -148.8316 18.7509 -2.5214 1.0752 6.6912 -0.8645 -0.1274 5.7399 2.7965 2.9667 3.0162 -0.1235 0.1240 2.5304 7.4670 2.9630 8.8066 -5.6391 -3.7113 -0.2389 2.7956 39.3162 -32.9960 -22.5037 11.4692 0.0000 0.0000 12.4438 -55.3074 7.9337 -9.9573 0.0000 0.0000 -0.0000 0.0000 0.0000 0.0000 0.6589 2.9235 -29.0329 25.3096 42.8299 -72.7256 -0.0000 -0.0000 -55.2895 -19.6734 -21.9511 5.5829 -0.0000 -0.0000 0.0000 -0.0000 0.0000 0.0000 -48.2103 17.3670 -3.5671 71.3751 0.0000 0.0000 -15.1809 -9.0120 -18.8484 2.3786 0.0000 0.0000 -50.7498 -1.9762 -4.8550 47.4439 0.0000 0.0000 14.3554 16.3056 -12.5581 0.6115 0.0000 0.0000
 9.6455 -70.4962 29.3528 6.8452 3.9506 -149.1988 18.6835 -2.6394 1.1208 6.6756 -0.8968 -0.1207 5.6290 2.7037 3.1677 3.0177 -0.1784 0.2103 2.2713 7.5882 2.9754 8.8108 -5.6848 -3.9603 -0.3788 2.8891 39.5569 -32.9169 -22.4424 11.2866 0.0000 0.0000 12.3856 -55.3986 7.8118 -9.9526 0.0000 0.0000 0.0000 0.0000 0.0000 0.0000 0.5737 2.9650 -28.9480 25.1667 42.6891 -72.6527 -0.0000 -0.0000 -55.2044 -19.6813 -21.8820 5.6136 -0.0000 -0.0000 -0.0000 -0.0000 0.0000 0.0000 -48.2146 17.4042 -3.4905 71.1277 0.0000 0.0000 -14.9171 -8.9994 -18.5486 2.3805 0.0000 0.0000 -50.5869 -2.1048 -4.5944 47.3162 0.0000 0.0000 14.0362 16.5916 -12.5166 -0.3624 0.0000 -0.0000
 9.6104 -70.5549 29.3770 6.8519 4.0613 -149.5559 18.6337 -2.7401 1.1692 6.6585 -0.9293 -0.1136 5.5125 2.5999 3.3729 3.0070 -0.2418 0.2957 2.0347 7.6984 2.9691 8.8006 -5.6987 -4.1842 -0.3309 2.8522 39.7008 -32.7803 -22.1872 11.4481 0.0000 0.0000 12.1022 -55.6149 7.3794 -10.1283 -0.0000 -0.0000 -0.0000 -0.0000 -0.0000 -0.0000 0.4807 3.0432 -28.8581 25.0659 42.5264 -72.6002 -0.0000 -0.0000 -55.0898 -19.6656 -21.8086 5.6754 0.0000 0.0000 -0.0000 -0.0000 0.0000 -0.0000 -48.2118 17.4595 -3.4043 70.8716 0.0000 0.0000 -14.6529 -9.0019 -18.2581 2.3567 0.0000 0.0000 -50.4445 -2.2228 -4.2955 47.2649 0.0000 0.0000 13.4508 16.9100 -12.3242 -1.6575 0.0000 -0.0000
